<svg width="14" height="14" viewBox="0 0 14 14" fill="none" xmlns="http://www.w3.org/2000/svg">
<g clip-path="url(#clip0_83_1231)">
<path d="M9.45007 7.23338C9.45007 5.83338 10.6167 5.19171 10.6751 5.13338C10.0334 4.14171 8.9834 4.02504 8.6334 4.02504C7.7584 3.90838 6.94173 4.55004 6.5334 4.55004C6.12506 4.55004 5.42507 4.02504 4.72507 4.08338C3.79173 4.08338 2.91673 4.60838 2.45007 5.48338C1.4584 7.17504 2.21673 9.68338 3.15007 11.025C3.61673 11.725 4.14173 12.425 4.90006 12.425C5.60006 12.425 5.8334 11.9584 6.7084 11.9584C7.5834 11.9584 7.81673 12.425 8.51673 12.3667C9.27507 12.3667 9.74173 11.6667 10.2084 11.025C10.7334 10.2667 10.9667 9.50838 10.9667 9.45004C10.9667 9.45004 9.5084 8.86671 9.45007 7.23338Z" fill="#E6E1E5"/>
<path d="M8.16672 3.03332C8.51672 2.56666 8.80838 1.92499 8.75005 1.28333C8.22505 1.28333 7.52505 1.63333 7.11672 2.09999C6.76672 2.50833 6.41672 3.14999 6.53338 3.79166C7.11672 3.84999 7.75838 3.49999 8.16672 3.03332Z" fill="#E6E1E5"/>
</g>
<defs>
<clipPath id="clip0_83_1231">
<rect width="14" height="14" fill="white"/>
</clipPath>
</defs>
</svg>
